<?xml version="1.0" encoding="UTF-8"?><svg xmlns="http://www.w3.org/2000/svg" fill="none" height="260" viewBox="0 0 260 260" width="260" version="1.2" baseProfile="tiny-ps"><title>Griko Nibras</title><circle cx="130" cy="130" fill="#fff" r="130"></circle><path d="m105 237.5-31 3.5 26 14.5 49 2 41.5-16.5 2-11.5-3-7-8.5 10.5-30.5 15-3.5 6h-31.5l-4.5-21z" fill="#cbd5e0"></path><path d="m120.161 259.633c-5.724-12.703-6.494-21.582-6.324-27.975l.559-3.332c2.844.229 5.821.363 8.937.419 8.54.153 18.975-1.942 28.539-5.922 9.547-3.972 18.449-9.916 23.702-17.63.564-.829.346-1.956-.488-2.516-.834-.561-1.967-.344-2.532.485-4.708 6.914-12.904 12.496-22.09 16.319-9.168 3.815-19.102 5.783-27.065 5.641-12.652-.227-22.524-1.769-30.2837-5.494-7.6853-3.689-13.4427-9.59-17.7454-18.854-4.5371-9.769-7.1727-27.095-8.381-43.991-1.2052-16.853-.9653-32.86.0626-39.834 1.0607-7.196 2.4241-13.85 6.0915-18.7536 3.5508-4.7478 9.4893-8.1244 20.4171-8.191 1.3956-.0085 2.7122-.0162 3.9569-.0235l.0716-.0004c12.4324-.0728 17.6754-.1035 22.8964-.4552 3.807-.2565 7.602-.6836 14.165-1.4222l1.707-.192c8.655-.9726 14.653-.265 19.583 2.4453 4.963 2.7279 9.128 7.6381 13.761 15.7196 4.557 7.947 6.816 15.903 8.462 22.925.334 1.425.648 2.838.953 4.208v.002l.001.001c.433 1.95.848 3.813 1.271 5.499.729 2.898 1.548 5.549 2.707 7.692 1.697 3.139 4.018 5.02 6.861 4.675 2.559-.31 4.667-2.385 6.219-4.707 1.232-1.843 2.72-3.443 4.241-4.204.73-.365 1.418-.512 2.079-.452.654.06 1.426.336 2.313 1.052.777.628 1.359 1.27 1.774 2.048.414.776.714 1.785.785 3.211.145 2.926-.678 7.408-3.191 14.704-2.007 5.827-5.342 8.853-8.599 10.358-3.323 1.534-6.694 1.542-8.742 1.099-.984-.213-1.955.406-2.17 1.384-.214.978.41 1.943 1.393 2.156.211.046.431.088.659.126-.671 8.678-1.125 26.926-.254 46.223.005.1.017.197.037.292-1.771 3.132-5.09 5.998-9.46 8.706-5.211 3.228-11.525 5.999-17.533 8.635-.55.241-1.097.481-1.64.721-8.472 3.729-15.365 10.123-20.593 16.659-.198.247-.394.494-.587.742-2.215.112-4.444.169-6.687.169-3.31 0-6.591-.124-9.839-.367z" fill="#fddec2"></path><g fill="#1a202c"><path d="m99.8927 235.727c-13.354.912-25.1046 1.714-36.9342 5.675 1.4054.848 2.8281 1.67 4.2675 2.465 10.3109-2.97 20.8054-3.691 32.999-4.529.642-.044 1.287-.088 1.938-.133-2.9833 3.823-6.1785 8.788-9.3291 15.405 1.1789.351 2.3647.686 3.5573 1.004 4.9128-10.163 9.8728-16.112 13.8308-19.999.248 5.818 1.472 13.096 5.261 22.359-.886-.524-1.815-.922-2.783-1.198-2.987-.854-6.109-.483-9.078.546 5.398 1.113 10.918 1.891 16.539 2.311-5.724-12.703-6.494-21.582-6.324-27.975l.559-3.332c2.844.229 5.821.363 8.937.419 8.54.153 18.975-1.942 28.539-5.922 9.547-3.972 18.449-9.916 23.702-17.63.564-.829.346-1.956-.488-2.516-.834-.561-1.967-.344-2.532.485-4.708 6.914-12.904 12.496-22.09 16.319-9.168 3.815-19.102 5.783-27.065 5.641-12.652-.227-22.524-1.769-30.2837-5.494-7.6853-3.689-13.4428-9.59-17.7455-18.854-3.1417-6.765-5.3717-17.153-6.8473-28.512.2826.038.5661.072.8503.102 6.8506.731 14.6828-.559 20.8992-3.03 1.4993-.596 2.7914-1.432 3.906-2.442-.2013 2.033-.2332 3.803-.1089 5.34.2787 3.448 1.3685 5.954 3.3456 7.498 1.938 1.513 4.3643 1.81 6.6563 1.693 2.298-.118 4.787-.675 7.057-1.185.981-.22 1.598-1.192 1.377-2.171s-1.195-1.594-2.176-1.374c-2.339.525-4.514 1.002-6.445 1.101-1.936.099-3.3-.204-4.2243-.925-.8849-.691-1.7279-2.055-1.9602-4.929-.2335-2.888.1757-7.064 1.5702-13.009.0505-.216.0603-.431.0345-.638.2976-.922.5508-1.855.7668-2.783 1.335-5.724 1.409-11.875 1.455-15.647v-.049c.01-.782-.083-1.618-.287-2.469 5.82-4.14 11.615-2.326 14.534-.439-.004.05-.008.099-.012.148-.147 1.967.19 3.94.618 5.705.215.889.461 1.753.692 2.555l.086.298c.202.697.386 1.334.539 1.935l.072.28c.835 3.275 2.121 8.317 4.911 12.636 2.933 4.54 7.578 8.352 14.998 8.634 14.515.551 24.765-2.967 28.294-11.045 1.655-3.787 3.611-11.277 3.31-18.113-.022-.489-.055-.978-.102-1.466.883-.464 1.825-1.184 2.574-2.137 1.042-1.325 1.764-3.178 1.318-5.395-.237-1.178-.827-2.11-1.725-2.761-.833-.603-1.808-.874-2.683-1.023-.873-.149-1.836-.205-2.728-.256l-.036-.002c-.928-.054-1.827-.107-2.725-.231-.138-.019-.274-.022-.407-.011-1.404-.802-3.057-1.339-4.975-1.548-15.33-1.671-25.753-.028-32.703 2.077-3.161.957-5.443 2.327-6.974 4.077-.563.643-1.008 1.319-1.353 2.015-3.887-2.108-10.399-3.63-16.9568.643-1.7779-2.867-5.0043-5.337-10.007-5.889-7.5371-.833-15.2572-.482-23.561 1.145.1163-5.178.4018-9.43.8143-12.228 1.0606-7.196 2.424-13.85 6.0915-18.7536 3.5507-4.7478 9.4892-8.1244 20.4171-8.191 1.3848-.0084 2.6919-.0161 3.9281-.0233l.1003-.0006c12.4325-.0728 17.6755-.1035 22.8965-.4552 3.807-.2565 7.602-.6836 14.165-1.4222l1.707-.192c8.655-.9725 14.653-.265 19.583 2.4454 4.962 2.7278 9.128 7.6381 13.761 15.7195 4.556 7.947 6.816 15.903 8.462 22.925.334 1.424.648 2.837.953 4.207v.001.002c.434 1.95.848 3.814 1.272 5.5.729 2.898 1.548 5.549 2.707 7.692 1.697 3.139 4.018 5.02 6.861 4.675 2.559-.31 4.667-2.385 6.219-4.707 1.232-1.843 2.72-3.443 4.241-4.204.73-.365 1.418-.512 2.079-.452.654.06 1.426.336 2.313 1.052.777.628 1.359 1.27 1.774 2.048.414.776.714 1.785.785 3.211.145 2.926-.678 7.408-3.191 14.704-2.007 5.827-5.342 8.853-8.599 10.358-3.323 1.534-6.695 1.542-8.742 1.099-.984-.213-1.955.406-2.17 1.384-.214.978.41 1.943 1.393 2.156.211.046.431.088.659.126-.672 8.678-1.125 26.926-.254 46.223.005.1.017.197.037.292-1.771 3.132-5.09 5.998-9.46 8.706-5.211 3.228-11.525 5.999-17.533 8.635l-.015.007-1.625.714c-8.472 3.729-15.365 10.123-20.594 16.659-.197.247-.393.494-.586.742 4.156-.211 8.261-.616 12.306-1.208 1.268-.37 2.506-.559 3.713-.599 2.933-.517 5.833-1.132 8.695-1.842-1.408-.611-2.882-1.094-4.412-1.404-4.011-.812-8.316-.41-12.727 1.853 4.268-4.422 9.315-8.35 15.081-10.888.545-.24 1.097-.482 1.654-.726l.016-.007c5.958-2.614 12.511-5.488 17.956-8.861 4.621-2.863 8.738-6.258 10.937-10.42 1.172 3.284 1.478 9.612-4.645 19.509-.72 1.163-1.394 2.297-2.027 3.398 2.01-.903 3.993-1.856 5.946-2.857 2.424-4.175 3.821-7.867 4.506-11.065 2.662.552 6.132 1.334 10.06 2.359 1.286-.888 2.556-1.798 3.809-2.73-5.312-1.469-10.005-2.534-13.367-3.226.341-5.686-1.725-9.318-3.554-10.807-.205-.167-.441-.285-.689-.35-.645-17.767-.201-34.061.414-41.922 2.091-.111 4.433-.592 6.754-1.664 4.195-1.937 8.198-5.748 10.513-12.47 2.541-7.379 3.563-12.408 3.382-16.057-.092-1.862-.499-3.407-1.205-4.73-.705-1.321-1.656-2.323-2.696-3.162-1.126-.91-2.308-1.488-3.522-1.737.624-8.183 1.308-15.024 1.893-20.867l.125-1.252c.629-6.299 1.127-11.459 1.261-15.853.255-8.3406-.797-14.1219-4.781-20.1299 2.469-1.6511 5.113-4.2442 7.292-8.3364 2.538-4.7634 2.487-9.0094 1.291-12.1556-.59-1.5504-1.457-2.8278-2.416-3.747-.903-.8655-2.101-1.6083-3.377-1.6425-1.767-.0475-2.96 1.1655-3.68 1.9842-.286.3251-.587.6985-.87 1.0504l-.093.1147-.101.1258-.105.1293c-.387.4736-.769.923-1.187 1.338-.823.8183-1.743 1.4643-2.939 1.7761-1.199.3124-2.856.3365-5.227-.4076-12.977-4.073-22.106-10.408-30.996-16.5777l-.876-.6079c-9.149-6.3437-18.211-12.4574-30.878-15.098-8.104-1.6895-26.148-2.6493-40.5718 7.5097-5.8374 4.1115-12.7229 9.4233-16.2628 17.2564-2.2157 4.9029-3.0653 10.6514-1.7436 17.505-4.9656.1137-12.7527 4.3176-16.3325 17.7613-1.5386 5.7782-1.3066 11.9437-.1299 17.3787.9622 4.444 2.5806 8.512 4.49 11.567-.7527 5.85-.8929 10.611-.6119 14.477-1.3241.429-2.47 1.009-3.4432 1.728-.1115.016-.223.043-.3334.081-.9516.329-1.8535.542-2.72.728-.1578.033-.3192.067-.4826.101l-.0041.001-.0027.001c-.682.142-1.3957.291-2.0123.477-.7831.237-1.6721.603-2.3844 1.321-.7572.764-1.1362 1.739-1.2378 2.85-.1918 2.097.6048 3.758 1.6499 4.926 1.0109 1.129 2.2797 1.835 3.2542 2.165.0669.023.1342.041.2017.056.6201 5.269 2.7243 11.245 4.6426 16.557 1.7544 4.857 5.9459 7.637 10.8639 8.995 1.4963 12.017 3.8418 23.323 7.3092 30.788 4.6116 9.93 10.9321 16.501 19.4701 20.599 5.5172 2.649 11.8984 4.234 19.2294 5.08l-.433 2.583c-1.462 1.298-3.115 2.849-4.894 4.787-1.851.134-3.669.258-5.4578.38zm-31.8257-67.207c.5495.092 1.1143.169 1.6932.231 6.1973.661 13.4345-.515 19.1635-2.792 4.0374-1.605 6.3447-5.886 7.6001-11.272 1.2372-5.308 1.3144-11.105 1.3606-14.917.0346-2.856-2.1414-7.426-8.4869-8.127-7.3537-.812-14.9395-.443-23.2132 1.25-.0455 7.038.1942 15.355.8045 23.89.2805 3.922.6379 7.868 1.0782 11.737zm-10.8728-33.297c.9295 5.531 2.8732 8.703 4.9066 10.472.1966.171.4198.292.6541.365.1341 3.571.3311 7.26.5971 10.98.2493 3.486.5602 7.016.9393 10.515-3.4405-1.238-5.9091-3.318-6.9783-6.278-2.155-5.967-4.2756-12.103-4.5738-17.108-.1477-2.479.1684-4.485.9915-5.995.6657-1.222 1.7336-2.251 3.4635-2.951zm62.2338 1.745c.162-.314.225-.663.192-1.003.227-.836.622-1.608 1.239-2.313.956-1.093 2.568-2.166 5.287-2.989 6.449-1.953 16.376-3.563 31.25-1.942 3.022.329 4.927 1.681 6.167 3.584 1.294 1.986 1.943 4.703 2.079 7.794.273 6.193-1.538 13.132-3.01 16.502-2.535 5.803-10.478 9.409-24.816 8.865-5.987-.228-9.64-3.201-12.075-6.971-2.464-3.814-3.626-8.366-4.48-11.706l-.035-.14c-.169-.66-.371-1.357-.57-2.047l-.085-.293c-.23-.799-.457-1.598-.652-2.404-.394-1.625-.631-3.169-.526-4.581.009-.12.021-.238.035-.356zm-69.5347.878c-.4107.088-.759.17-1.0778.266-.5592.169-.7663.314-.8505.399-.0394.039-.1574.16-.1999.624-.0838.916.2375 1.615.7392 2.175.1831.204.3862.385.5927.539.0852-1.395.331-2.745.7963-4.003zm118.5797-3.301c.145-.137.286-.288.415-.452.52-.662.809-1.458.612-2.437-.069-.342-.184-.456-.294-.536-.174-.126-.511-.271-1.156-.381-.376-.064-.791-.107-1.261-.142.745 1.208 1.293 2.544 1.684 3.948z" fill-rule="evenodd"></path><path d="m200.739 153.638c.988-.19 1.634-1.141 1.443-2.123-.191-.983-1.148-1.625-2.136-1.435-1.037.2-2.079.511-3.222 1.326-.569.405-1.137.917-1.735 1.561-.507-.666-1.429-.916-2.222-.55-.913.421-1.31 1.498-.886 2.406.558 1.197.964 4.454-2.463 7.054-.8.607-.954 1.744-.343 2.54.611.795 1.755.948 2.556.34 2.898-2.199 4.017-4.858 4.225-7.185.123-.097.236-.211.334-.342 1.206-1.613 2.025-2.428 2.659-2.88.575-.41 1.066-.573 1.79-.712z"></path><path d="m136.873 192.841c.853-.531 1.113-1.652.581-2.503-.533-.852-1.656-1.111-2.51-.579-13.847 8.623-27.891 5.853-35.0089 3.118-.9385-.361-1.9924.106-2.3539 1.042-.3615.937.1064 1.988 1.0449 2.349 7.6989 2.958 23.0579 6.032 38.2469-3.427z"></path></g><path d="m91.9759 90.0384c.5161-.0193 1.0441-.0307 1.5842-.0339.8197-.005 1.6122-.0098 2.3789-.0143-.0194-.085-.045-.1696-.0771-.2535-3.3769-8.8238-2.1457-17.5547 3.2909-23.3577 5.1292-5.4731 12.9762-7.1441 21.5402-4.5876 6.437 1.9235 11.493 4.6516 16.534 7.5146.901.5096 2.05.1989 2.563-.6958.516-.8939.204-2.0349-.698-2.5469-5.235-2.9723-10.5-5.8081-17.317-7.8462-9.983-2.9828-19.232-.9358-25.3729 5.6175-6.1231 6.5342-7.7788 16.4915-4.4262 26.2038z" fill="#2d3748"></path><path d="m111.748 89.8574c-.193-.5976-.685-1.0848-1.344-1.244-2.202-.5338-3.026-3.0284-3.278-4.0768-.723-3.0112-.112-7.2027 2.459-9.3874.79-.6699.882-1.8493.206-2.6323-.675-.7838-1.861-.8759-2.649-.2064-3.333 2.8337-4.842 8.218-3.671 13.0936.438 1.8211 1.21 3.3559 2.248 4.5237 2.306-.0186 4.279-.0402 6.029-.0704z" fill="#2d3748"></path><path d="m84.369 150.032c-1.39.28-2.6408 1.126-3.3313 1.815-.7112.71-1.8642.71-2.5754 0-.7112-.709-.7112-1.86 0-2.569 1.0632-1.061 2.9284-2.354 5.1873-2.808 2.3742-.477 5.098.003 7.5053 2.404.7112.71.7112 1.86 0 2.57-.7112.709-1.8642.709-2.5754 0-1.4778-1.475-2.9357-1.668-4.2105-1.412z" fill="#1a202c" fill-rule="evenodd"></path><path d="m144.263 145.995c-1.39.279-2.641 1.126-3.332 1.815-.711.709-1.864.709-2.575 0-.711-.71-.711-1.86 0-2.569 1.063-1.061 2.928-2.354 5.187-2.808 2.375-.477 5.098.002 7.506 2.404.711.709.711 1.86 0 2.569-.712.71-1.865.71-2.576 0-1.478-1.474-2.936-1.667-4.21-1.411z" fill="#1a202c" fill-rule="evenodd"></path><circle cx="130" cy="130" r="127" stroke="#1a202c" stroke-width="6"></circle></svg>